<svg version="1" xmlns="http://www.w3.org/2000/svg" width="933.333" height="933.333" viewBox="0 0 700.000000 700.000000"><path d="M496.6 128c-.7.8-12.4 18.6-26.2 39.5-28.3 43.2-42.9 65.3-44.4 67.5-1.1 1.6-28.6 43.4-39.8 60.5-11.7 17.9-56.7 86.1-88.1 133.7l-19.6 29.6-8-12.1c-10.8-16.3-63.6-95.1-64.1-95.6-.6-.7-88.2-.7-89.9-.1-1 .4-.7 1.4 1.4 4.5 1.5 2.2 8.7 13 16.1 24 7.4 11 13.7 20.2 14 20.5.4.3.9 1 1.1 1.6.2.6 4.9 7.7 10.4 15.7 5.5 8.1 10.7 15.8 11.5 17.1 1.6 2.6 38 56.6 52.9 78.5 5 7.4 9.1 13.8 9.1 14.3 0 .4-1.7 3.4-3.8 6.6l-3.8 5.8-14.4-21.5c-7.9-11.9-14.8-21.8-15.2-21.9-.5-.2-.8-.7-.8-1.2s-9.5-14.9-21-32.2c-11.6-17.2-33.3-49.5-48.2-71.8l-27.2-40.5H53.3c-24.9 0-45.3.3-45.3.7 0 .3 2.8 4.8 6.3 10 3.5 5.1 16.6 24.6 29.2 43.3 12.5 18.7 33 49.1 45.4 67.5 12.4 18.4 28.7 42.7 36.3 54 7.5 11.3 14.1 20.9 14.5 21.5.4.5 9.3 13.7 19.7 29.2l19 28.3H269l2.7-4.3c1.6-2.3 3.1-4.4 3.6-4.5.4-.2.7-1 .7-1.9 0-2.5 1.7-1.1 5.7 4.7l3.9 5.5 45.4.2 45.5.3 159.2-238.7c87.6-131.3 159.1-238.8 159-238.9-.2-.3-76.3-.7-86.2-.5-3.4.1-4.3.6-6.2 3.4-1.1 1.7-9.2 14-17.9 27.2-36.7 55.9-45.4 69.1-58.8 89.5-23.5 35.6-38.5 58.4-39.6 60-.5.8-6 9.1-12.2 18.5-6.1 9.3-17.5 26.7-25.3 38.5-7.8 11.8-19.4 29.4-25.7 39-6.3 9.6-18.4 28.1-27 41-31.1 47.3-42.7 64.8-52.4 79.7-5.4 8.4-10.2 15.3-10.5 15.3-.6 0-9.9-13.6-9.9-14.5 0-.3 59.6-89.9 132.5-199C567.8 157.1 587.6 127 585.7 126.9c-1.2 0-21.5-.1-45-.2-37-.2-43 0-44.1 1.3z"/></svg>